<?xml version="1.0" encoding="UTF-8" standalone="no"?>
<svg width="20px" height="20px" viewBox="0 0 20 20" version="1.1" xmlns="http://www.w3.org/2000/svg" xmlns:xlink="http://www.w3.org/1999/xlink">
    <!-- Generator: Sketch 43 (38999) - http://www.bohemiancoding.com/sketch -->
    <title>dribbble-icon</title>
    <desc>Created with Sketch.</desc>
    <defs></defs>
    <g id="Page-1" stroke="none" stroke-width="1" fill="none" fill-rule="evenodd">
        <g id="Desktop" transform="translate(-260.000000, -147.000000)" fill="#777777">
            <path d="M274.771872,164.083725 C274.684854,163.568674 274.229774,161.061618 273.109125,157.984243 C275.866651,157.543274 278.254939,158.299389 278.432502,158.357008 C278.051505,160.735889 276.689793,162.78904 274.771872,164.083725 M270,165.540687 C267.932738,165.540687 266.037159,164.805738 264.560207,163.58396 C264.673095,163.674506 264.751881,163.733302 264.751881,163.733302 C264.751881,163.733302 266.388758,160.163217 271.453434,158.398166 C271.472248,158.39111 271.491063,158.38523 271.509878,158.379351 C272.711665,161.502587 273.207902,164.117827 273.333725,164.864534 C272.309501,165.299624 271.182973,165.540687 270,165.540687 M261.460489,157 C261.460489,156.908278 261.464017,156.820085 261.467545,156.730715 C261.618062,156.734243 265.837253,156.829492 270.235183,155.513641 C270.479774,155.992239 270.713782,156.479069 270.926623,156.964722 C270.813735,156.996472 270.703198,157.030574 270.591486,157.067027 C265.981891,158.556914 263.645343,162.703198 263.645343,162.703198 C263.645343,162.703198 263.647695,162.706726 263.647695,162.707902 C262.288335,161.194497 261.460489,159.194262 261.460489,157 M266.355833,149.276576 C266.469897,149.429445 268.049153,151.569614 269.527281,154.197789 C265.426858,155.287865 261.868532,155.244356 261.642756,155.239652 C262.197789,152.595014 263.9746,150.401929 266.355833,149.276576 M267.95508,148.708608 C267.953904,148.709784 267.952728,148.709784 267.952728,148.709784 C267.952728,148.709784 267.943321,148.712135 267.926858,148.715663 C267.936265,148.713311 267.945673,148.712135 267.95508,148.708608 M275.640875,150.591251 C275.619708,150.624177 274.402634,152.476246 271.179445,153.683913 C269.720132,151.001646 268.116181,148.870884 267.98683,148.701552 C268.632408,148.545155 269.306209,148.460489 270,148.460489 C272.162512,148.460489 274.135701,149.265992 275.640875,150.591251 M278.537159,156.915334 C278.413688,156.888288 275.523283,156.266228 272.58937,156.635466 C272.529398,156.489652 272.46825,156.342662 272.404751,156.195673 C272.227187,155.777046 272.035513,155.363123 271.836783,154.956256 C275.210489,153.579257 276.579257,151.599012 276.594544,151.575494 C277.792803,153.031279 278.517168,154.889229 278.537159,156.915334 M279.796566,154.988006 C279.66604,154.344779 279.468485,153.712135 279.213311,153.107714 C278.962841,152.515052 278.652399,151.943556 278.291392,151.40969 C277.933913,150.879351 277.522342,150.381938 277.07079,149.930386 C276.618062,149.477658 276.120649,149.066087 275.591486,148.709784 C275.05762,148.347601 274.484948,148.037159 273.892286,147.786689 C273.28904,147.53269 272.656397,147.33396 272.01317,147.20461 C271.354657,147.069379 270.677328,147 270,147 C269.322672,147 268.645343,147.069379 267.985654,147.20461 C267.343603,147.33396 266.71096,147.53269 266.106538,147.786689 C265.513876,148.037159 264.94238,148.347601 264.408514,148.709784 C263.878175,149.066087 263.380762,149.477658 262.928034,149.930386 C262.476482,150.381938 262.066087,150.879351 261.708608,151.40969 C261.347601,151.943556 261.037159,152.515052 260.786689,153.107714 C260.531515,153.712135 260.335136,154.344779 260.203434,154.988006 C260.068203,155.644167 260,156.322672 260,157 C260,157.678504 260.068203,158.357008 260.203434,159.014346 C260.335136,159.656397 260.531515,160.290216 260.786689,160.893462 C261.037159,161.486124 261.347601,162.058796 261.708608,162.592662 C262.066087,163.123001 262.476482,163.619238 262.928034,164.071966 C263.380762,164.524694 263.878175,164.933913 264.408514,165.291392 C264.94238,165.652399 265.513876,165.964017 266.106538,166.214487 C266.71096,166.469661 267.343603,166.664864 267.985654,166.796566 C268.645343,166.932973 269.322672,167.001176 270,167.001176 C270.677328,167.001176 271.354657,166.932973 272.01317,166.796566 C272.656397,166.664864 273.28904,166.469661 273.892286,166.214487 C274.484948,165.964017 275.05762,165.652399 275.591486,165.291392 C276.120649,164.933913 276.618062,164.524694 277.07079,164.071966 C277.522342,163.619238 277.933913,163.123001 278.291392,162.592662 C278.652399,162.058796 278.962841,161.486124 279.213311,160.893462 C279.468485,160.290216 279.66604,159.656397 279.796566,159.014346 C279.931797,158.357008 280,157.678504 280,157 C280,156.322672 279.931797,155.644167 279.796566,154.988006" id="dribbble-icon"></path>
        </g>
    </g>
</svg>