<?xml version="1.0" encoding="UTF-8" standalone="no"?>
<svg width="22px" height="22px" viewBox="0 0 22 22" version="1.1" xmlns="http://www.w3.org/2000/svg" xmlns:xlink="http://www.w3.org/1999/xlink">
    <!-- Generator: Sketch 43 (38999) - http://www.bohemiancoding.com/sketch -->
    <title>github-icon</title>
    <desc>Created with Sketch.</desc>
    <defs></defs>
    <g id="Page-1" stroke="none" stroke-width="1" fill="none" fill-rule="evenodd">
        <g id="Desktop" transform="translate(-259.000000, -176.000000)">
            <g id="github-icon" transform="translate(260.000000, 177.000000)">
                <path d="M11.5676953,13.8349219 C13.5163281,13.6048047 15.5888672,12.8962891 15.5888672,9.53054688 C15.5888672,8.57390625 15.2519922,7.79429688 14.7033203,7.19191406 C14.7918359,6.96183594 15.075,6.09371094 14.5965234,4.88929688 C14.5965234,4.88929688 13.8879688,4.65890625 12.223125,5.77480469 C11.5145703,5.58015625 10.7352344,5.4559375 10.0089844,5.4559375 C9.26472656,5.4559375 8.48511719,5.58015625 7.79425781,5.77480469 C6.11136719,4.65890625 5.40285156,4.88929688 5.40285156,4.88929688 C4.9246875,6.09371094 5.20820313,6.96183594 5.29667969,7.19191406 C4.74742188,7.79425781 4.41085938,8.57390625 4.41085938,9.53054688 C4.41085938,12.8962891 6.48339844,13.6048047 8.43203125,13.8349219 C8.18421875,14.0478906 7.95386719,14.4549609 7.86535156,15.0219141 C7.36917969,15.2343359 6.07597656,15.6419531 5.29667969,14.2956641 C5.29667969,14.2956641 4.8359375,13.4632422 3.96808594,13.4101563 C3.96808594,13.4101563 3.09996094,13.3924609 3.89726563,13.9410938 C3.89726563,13.9410938 4.48164063,14.2071875 4.87160156,15.2166016 C4.87160156,15.2166016 5.40285156,16.8997656 7.84734375,16.3681641 L7.84734375,17.87375 C7.84734375,18.1044531 7.67039063,18.3699219 7.22761719,18.2991406 C3.75542969,17.1475391 1.2578125,13.8525781 1.2578125,9.99101563 C1.2578125,5.15480469 5.1725,1.24015625 10.0089844,1.24015625 C14.8272266,1.24015625 18.7598828,5.15484375 18.7421875,9.99101563 C18.7421875,13.8525781 16.2442969,17.1298438 12.7723438,18.2991406 C12.3292969,18.3876563 12.1523047,18.1221875 12.1523047,17.87375 L12.1523047,15.4472656 C12.1523438,14.6319141 11.88625,14.1009766 11.5676953,13.8349219 L11.5676953,13.8349219 Z M20,10.0089844 C20,4.48164063 15.5180859,0 10.0089844,0 C4.48164062,0 0,4.48164063 0,10.0089844 C0,15.5180859 4.48164062,20 10.0089844,20 C15.5180859,20 20,15.5180859 20,10.0089844 L20,10.0089844 Z" id="Shape" fill="#777777"></path>
                <ellipse id="Oval-2" stroke="#777777" stroke-width="1.2" cx="10" cy="10" rx="10" ry="10"></ellipse>
            </g>
        </g>
    </g>
</svg>