<?xml version="1.0" encoding="UTF-8" standalone="no"?>
<svg width="20px" height="20px" viewBox="0 0 20 20" version="1.1" xmlns="http://www.w3.org/2000/svg" xmlns:xlink="http://www.w3.org/1999/xlink">
    <!-- Generator: Sketch 43 (38999) - http://www.bohemiancoding.com/sketch -->
    <title>instagram-icon</title>
    <desc>Created with Sketch.</desc>
    <defs></defs>
    <g id="Page-1" stroke="none" stroke-width="1" fill="none" fill-rule="evenodd">
        <g id="Desktop" transform="translate(-260.000000, -210.000000)" fill-rule="nonzero" fill="#777777">
            <g id="instagram-icon" transform="translate(260.000000, 210.000000)">
                <path d="M9.97971602,1.79716024 C12.6450304,1.79716024 12.9614604,1.80933063 14.0121704,1.85395538 C14.9858012,1.89858012 15.5131846,2.06085193 15.8661258,2.19878296 C16.3326572,2.38133874 16.6653144,2.59634888 17.0141988,2.94523327 C17.3630832,3.29411765 17.5780933,3.62677485 17.7606491,4.09330629 C17.8985801,4.44624746 18.0608519,4.97363083 18.1054767,5.94726166 C18.1541582,6.9979716 18.1622718,7.31440162 18.1622718,9.97971602 C18.1622718,12.6450304 18.1501014,12.9614604 18.1054767,14.0121704 C18.0608519,14.9858012 17.8985801,15.5131846 17.7606491,15.8661258 C17.5780933,16.3326572 17.3630832,16.6653144 17.0141988,17.0141988 C16.6653144,17.3630832 16.3326572,17.5780933 15.8661258,17.7606491 C15.5131846,17.8985801 14.9858012,18.0608519 14.0121704,18.1054767 C12.9614604,18.1541582 12.6450304,18.1622718 9.97971602,18.1622718 C7.31440162,18.1622718 6.9979716,18.1501014 5.94726166,18.1054767 C4.97363083,18.0608519 4.44624746,17.8985801 4.09330629,17.7606491 C3.62677485,17.5780933 3.29411765,17.3630832 2.94523327,17.0141988 C2.59634888,16.6653144 2.38133874,16.3326572 2.19878296,15.8661258 C2.06085193,15.5131846 1.89858012,14.9858012 1.85395538,14.0121704 C1.80527383,12.9614604 1.79716024,12.6450304 1.79716024,9.97971602 C1.79716024,7.31440162 1.80933063,6.9979716 1.85395538,5.94726166 C1.89858012,4.97363083 2.06085193,4.44624746 2.19878296,4.09330629 C2.38133874,3.62677485 2.59634888,3.29411765 2.94523327,2.94523327 C3.29411765,2.59634888 3.62677485,2.38133874 4.09330629,2.19878296 C4.44624746,2.06085193 4.97363083,1.89858012 5.94726166,1.85395538 C7.0020284,1.80527383 7.31440162,1.79716024 9.97971602,1.79716024 L9.97971602,1.79716024 Z M9.97971602,0 C7.26977688,0 6.92900609,0.0121703854 5.86612576,0.060851927 C4.80324544,0.109533469 4.07707911,0.279918864 3.44421907,0.523326572 C2.78701826,0.778904665 2.23123732,1.11967546 1.67545639,1.67545639 C1.11967546,2.22718053 0.778904665,2.78701826 0.523326572,3.44016227 C0.275862069,4.07302231 0.109533469,4.79918864 0.060851927,5.86206897 C0.0121703854,6.92494929 0,7.26572008 0,9.97565923 C0,12.6855984 0.0121703854,13.0263692 0.060851927,14.0892495 C0.109533469,15.1521298 0.279918864,15.8782961 0.523326572,16.5111562 C0.778904665,17.168357 1.11967546,17.7241379 1.67545639,18.2799189 C2.23123732,18.8356998 2.78701826,19.1764706 3.44421907,19.4320487 C4.07707911,19.6795132 4.80324544,19.8458418 5.86612576,19.8945233 C6.92900609,19.9432049 7.26977688,19.9553753 9.97971602,19.9553753 C12.6896552,19.9553753 13.030426,19.9432049 14.0933063,19.8945233 C15.1561866,19.8458418 15.8823529,19.6754564 16.515213,19.4320487 C17.1724138,19.1764706 17.7281947,18.8356998 18.2839757,18.2799189 C18.8397566,17.7241379 19.1805274,17.168357 19.4361055,16.5111562 C19.68357,15.8782961 19.8498986,15.1521298 19.8985801,14.0892495 C19.9472617,13.0263692 19.959432,12.6855984 19.959432,9.97565923 C19.959432,7.26572008 19.9472617,6.92494929 19.8985801,5.86206897 C19.8498986,4.79918864 19.6795132,4.07302231 19.4361055,3.44016227 C19.1805274,2.78701826 18.8397566,2.22718053 18.2880325,1.67545639 C17.7322515,1.11967546 17.1764706,0.778904665 16.5192698,0.523326572 C15.8864097,0.275862069 15.1602434,0.109533469 14.0973631,0.060851927 C13.030426,0.0121703854 12.6896552,0 9.97971602,0 L9.97971602,0 Z" id="Shape"></path>
                <path d="M10.1237323,5 C7.29208925,5 5,7.29614604 5,10.1237323 C5,12.9513185 7.29614604,15.2474645 10.1237323,15.2474645 C12.9513185,15.2474645 15.2474645,12.9513185 15.2474645,10.1237323 C15.2474645,7.29614604 12.9553753,5 10.1237323,5 Z M10.1237323,13.4503043 C8.28600406,13.4503043 6.79716024,11.9614604 6.79716024,10.1237323 C6.79716024,8.28600406 8.28600406,6.79716024 10.1237323,6.79716024 C11.9614604,6.79716024 13.4503043,8.28600406 13.4503043,10.1237323 C13.4503043,11.9614604 11.9614604,13.4503043 10.1237323,13.4503043 Z" id="Shape"></path>
                <ellipse id="Oval" cx="15.1967546" cy="5.19675456" rx="1.19675456" ry="1.19675456"></ellipse>
            </g>
        </g>
    </g>
</svg>