<?xml version="1.0" encoding="UTF-8" standalone="no"?>
<svg width="22px" height="22px" viewBox="0 0 22 22" version="1.1" xmlns="http://www.w3.org/2000/svg" xmlns:xlink="http://www.w3.org/1999/xlink">
    <!-- Generator: Sketch 43 (38999) - http://www.bohemiancoding.com/sketch -->
    <title>linkedin-icon</title>
    <desc>Created with Sketch.</desc>
    <defs></defs>
    <g id="Page-1" stroke="none" stroke-width="1" fill="none" fill-rule="evenodd">
        <g id="Desktop" transform="translate(-259.000000, -263.000000)">
            <g id="linkedin-icon" transform="translate(260.000000, 264.000000)">
                <polygon id="Fill-2-Copy-2" stroke="#777777" stroke-width="1.5" points="0 20 20 20 20 0 0 0"></polygon>
                <path d="M14.7188571,13.9257143 L12.5708571,13.9257143 L12.5708571,10.788 C12.5708571,9.96628571 12.2348571,9.40628571 11.496,9.40628571 C10.9308571,9.40628571 10.6165714,9.784 10.4702857,10.1491429 C10.4154286,10.2794286 10.424,10.4617143 10.424,10.6445714 L10.424,13.9257143 L8.296,13.9257143 C8.296,13.9257143 8.32342857,8.36685714 8.296,7.86228571 L10.424,7.86228571 L10.424,8.81371429 C10.5497143,8.39714286 11.2297143,7.80342857 12.3148571,7.80342857 C13.6611429,7.80342857 14.7188571,8.67542857 14.7188571,10.5542857 L14.7188571,13.9257143 Z M6.144,7.10342857 L6.13028571,7.10342857 C5.44457143,7.10342857 5,6.64 5,6.05314286 C5,5.45371429 5.45771429,5 6.15714286,5 C6.856,5 7.28571429,5.45257143 7.29942857,6.05142857 C7.29942857,6.63828571 6.856,7.10342857 6.144,7.10342857 L6.144,7.10342857 Z M5.24514286,13.9257143 L7.13942857,13.9257143 L7.13942857,7.86228571 L5.24514286,7.86228571 L5.24514286,13.9257143 Z" id="Fill-179-Copy-2" fill="#777777"></path>
            </g>
        </g>
    </g>
</svg>