<?xml version="1.0" encoding="UTF-8" standalone="no"?>
<svg width="20px" height="17px" viewBox="0 0 20 17" version="1.1" xmlns="http://www.w3.org/2000/svg" xmlns:xlink="http://www.w3.org/1999/xlink">
    <!-- Generator: Sketch 43 (38999) - http://www.bohemiancoding.com/sketch -->
    <title>twitter-icon</title>
    <desc>Created with Sketch.</desc>
    <defs></defs>
    <g id="Page-1" stroke="none" stroke-width="1" fill="none" fill-rule="evenodd">
        <g id="Desktop" transform="translate(-260.000000, -238.000000)" fill="#777777">
            <path d="M280,239.925222 C279.265129,240.25157 278.472736,240.472266 277.643951,240.572049 C278.491518,240.063744 279.141868,239.259611 279.447086,238.301696 C278.654693,238.772436 277.776604,239.112872 276.840993,239.296003 C276.094383,238.498914 275.027294,238 273.846334,238 C271.581851,238 269.744673,239.839526 269.744673,242.104009 C269.744673,242.426836 269.778717,242.737923 269.850326,243.038446 C266.440101,242.867054 263.417268,241.235311 261.392264,238.750132 C261.038915,239.359394 260.837002,240.063744 260.837002,240.816224 C260.837002,242.237835 261.561308,243.495099 262.662441,244.231144 C261.989787,244.210014 261.357046,244.024535 260.802958,243.718143 L260.802958,243.768621 C260.802958,245.758408 262.217527,247.417151 264.095792,247.792804 C263.75066,247.889065 263.389094,247.937196 263.013441,247.937196 C262.74931,247.937196 262.491049,247.913717 262.242179,247.865587 C262.763397,249.493808 264.278922,250.68181 266.075013,250.713506 C264.669836,251.814639 262.900745,252.470858 260.979046,252.470858 C260.648001,252.470858 260.320479,252.452075 260,252.41451 C261.816047,253.57786 263.97253,254.257557 266.28984,254.257557 C273.838117,254.257557 277.96443,248.005283 277.96443,242.580619 C277.96443,242.402183 277.960909,242.224922 277.952691,242.050009 C278.754476,241.470095 279.451781,240.748136 280,239.925222" id="twitter-icon"></path>
        </g>
    </g>
</svg>