<?xml version="1.0" encoding="UTF-8" standalone="no"?>
<svg width="100px" height="124px" viewBox="0 0 100 124" version="1.1" xmlns="http://www.w3.org/2000/svg" xmlns:xlink="http://www.w3.org/1999/xlink">
    <!-- Generator: Sketch 3.8.3 (29802) - http://www.bohemiancoding.com/sketch -->
    <title>logo</title>
    <desc>Created with Sketch.</desc>
    <defs>
        <polygon id="path-1" points="99.5487895 90.6698667 99.5487895 0.1712 0.000329415867 0.1712 0.000329415867 90.6698667 99.5487895 90.6698667"></polygon>
        <polygon id="path-3" points="0 123.828 99.5487895 123.828 99.5487895 0.665333333 0 0.665333333"></polygon>
    </defs>
    <g id="Symbols" stroke="none" stroke-width="1" fill="none" fill-rule="evenodd">
        <g id="VIsual-identity" transform="translate(-167.000000, -163.000000)">
            <g id="logo" transform="translate(167.000000, 163.000000)">
                <g id="Page-1">
                    <g id="Group-3" transform="translate(0.000000, 0.494667)">
                        <mask id="mask-2" fill="white">
                            <use xlink:href="#path-1"></use>
                        </mask>
                        <g id="Clip-2"></g>
                        <path d="M0.234957895,2.1952 C0.378484211,1.05653333 1.49745789,0.1712 2.5048,0.1712 L4.50885263,0.1712 C5.12814211,0.1712 6.25243158,0.677866667 6.64314211,1.43786667 L49.6372474,55.7178667 L49.8870895,55.7178667 L93.1709053,1.43786667 C93.5509842,0.677866667 94.6699579,0.1712 95.2865895,0.1712 L97.2933,0.1712 C98.3033,0.1712 99.4116421,1.05653333 99.5498526,2.1952 L99.4993526,86.6592 C99.7412211,88.2778667 98.6036421,89.4032 97.1178789,89.4032 L82.3399842,89.4032 C81.2050632,89.4032 80.0834316,88.4032 79.9691421,87.4085333 L80.0595105,48.5578667 L79.8070105,48.5578667 L53.0260632,89.2645333 C52.6619316,90.0352 51.5163789,90.6698667 50.8864579,90.6698667 L48.6511684,90.6698667 C47.8936684,90.6698667 46.8730368,90.0352 46.5062474,89.2645333 L19.8688263,48.5578667 L19.6163263,48.5578667 L19.5764579,87.4085333 C19.4488789,88.4032 18.4441947,89.4032 17.1923263,89.4032 L2.40645789,89.4032 C0.918036842,89.4032 -0.216884211,88.2778667 0.0356157895,86.6592 L0.234957895,2.1952 Z" id="Fill-1" fill="#020202" mask="url(#mask-2)"></path>
                    </g>
                    <mask id="mask-4" fill="white">
                        <use xlink:href="#path-3"></use>
                    </mask>
                    <g id="Clip-5"></g>
                    <polygon id="Fill-4" fill="#020202" mask="url(#mask-4)" points="22.3289737 123.828 77.2224737 123.828 77.2224737 119.942667 22.3289737 119.942667"></polygon>
                </g>
            </g>
        </g>
    </g>
</svg>