<?xml version="1.0" encoding="UTF-8" standalone="no"?>
<svg width="80px" height="73px" viewBox="0 0 80 73" version="1.1" xmlns="http://www.w3.org/2000/svg" xmlns:xlink="http://www.w3.org/1999/xlink">
    <!-- Generator: Sketch 3.7.2 (28276) - http://www.bohemiancoding.com/sketch -->
    <title>logo-m</title>
    <desc>Created with Sketch.</desc>
    <defs></defs>
    <g id="Welcome" stroke="none" stroke-width="1" fill="none" fill-rule="evenodd">
        <g id="Mobile-Portrait" transform="translate(-120.000000, -105.000000)" fill="#020202">
            <g id="Group-3" transform="translate(120.000000, 105.395733)">
                <path d="M0.187966316,1.75616 C0.302787368,0.845226667 1.19796632,0.13696 2.00384,0.13696 L3.60708211,0.13696 C4.10251368,0.13696 5.00194526,0.542293333 5.31451368,1.15029333 L39.7097979,44.5742933 L39.9096716,44.5742933 L74.5367242,1.15029333 C74.8407874,0.542293333 75.7359663,0.13696 76.2292716,0.13696 L77.83464,0.13696 C78.64264,0.13696 79.5293137,0.845226667 79.6398821,1.75616 L79.5994821,69.32736 C79.7929768,70.6222933 78.8829137,71.52256 77.6943032,71.52256 L65.8719874,71.52256 C64.9640505,71.52256 64.0667453,70.72256 63.9753137,69.9268267 L64.0476084,38.8462933 L63.8456084,38.8462933 L42.4208505,71.4116267 C42.1295453,72.02816 41.2131032,72.5358933 40.7091663,72.5358933 L38.9209347,72.5358933 C38.3149347,72.5358933 37.4984295,72.02816 37.2049979,71.4116267 L15.8950611,38.8462933 L15.6930611,38.8462933 L15.6611663,69.9268267 C15.5591032,70.72256 14.7553558,71.52256 13.7538611,71.52256 L1.92516632,71.52256 C0.734429474,71.52256 -0.173507368,70.6222933 0.0284926316,69.32736 L0.187966316,1.75616 Z" id="logo-m"></path>
            </g>
        </g>
    </g>
</svg>